<svg width="194" height="42" viewBox="0 0 194 42" fill="none" xmlns="http://www.w3.org/2000/svg">
<path d="M49.2821 7.40094C49.8019 7.92169 50.0618 8.56395 50.0618 9.32771C50.0618 10.0915 49.8019 10.7424 49.2821 11.2805C48.7623 11.8013 48.1335 12.0616 47.3957 12.0616C46.6579 12.0616 46.0374 11.8013 45.5344 11.2805C45.0146 10.7424 44.7547 10.0915 44.7547 9.32771C44.7547 8.56395 45.0146 7.92169 45.5344 7.40094C46.0374 6.86283 46.6579 6.59378 47.3957 6.59378C48.1335 6.59378 48.7623 6.86283 49.2821 7.40094Z" fill="#4760F0"/>
<path d="M42.8749 13.9741H47.4024C44.7194 17.5326 43.378 21.4903 43.378 25.8472C43.378 30.2041 44.7194 34.1618 47.4024 37.7203H42.8749C40.4771 34.5264 39.2781 30.5687 39.2781 25.8472C39.2781 21.1257 40.4771 17.168 42.8749 13.9741Z" fill="#4760F0"/>
<path d="M23.7539 19.0906C24.2737 19.6114 24.5336 20.2536 24.5336 21.0174C24.5336 21.7811 24.2737 22.4321 23.7539 22.9702C23.234 23.4909 22.6052 23.7513 21.8674 23.7513C21.1296 23.7513 20.5092 23.4909 20.0061 22.9702C19.4863 22.4321 19.2264 21.7811 19.2264 21.0174C19.2264 20.2536 19.4863 19.6114 20.0061 19.0906C20.5092 18.5525 21.1296 18.2834 21.8674 18.2834C22.6052 18.2834 23.234 18.5525 23.7539 19.0906Z" fill="#4760F0"/>
<path d="M78.7143 19.0906C79.2341 19.6114 79.494 20.2536 79.494 21.0174C79.494 21.7811 79.2341 22.4321 78.7143 22.9702C78.1945 23.4909 77.5656 23.7513 76.8278 23.7513C76.09 23.7513 75.4696 23.4909 74.9666 22.9702C74.4467 22.4321 74.1868 21.7811 74.1868 21.0174C74.1868 20.2536 74.4467 19.6114 74.9666 19.0906C75.4696 18.5525 76.09 18.2834 76.8278 18.2834C77.5656 18.2834 78.1945 18.5525 78.7143 19.0906Z" fill="#4760F0"/>
<path d="M140.676 11.7209C141.196 12.2416 141.456 12.8839 141.456 13.6476C141.456 14.4114 141.196 15.0623 140.676 15.6004C140.156 16.1212 139.528 16.3816 138.79 16.3816C138.052 16.3816 137.432 16.1212 136.929 15.6004C136.409 15.0623 136.149 14.4114 136.149 13.6476C136.149 12.8839 136.409 12.2416 136.929 11.7209C137.432 11.1827 138.052 10.9137 138.79 10.9137C139.528 10.9137 140.156 11.1827 140.676 11.7209Z" fill="#4760F0"/>
<path d="M30.9419 19.0906C31.4617 19.6114 31.7216 20.2536 31.7216 21.0174C31.7216 21.7811 31.4617 22.4321 30.9419 22.9702C30.4221 23.4909 29.7933 23.7513 29.0555 23.7513C28.3177 23.7513 27.6972 23.4909 27.1942 22.9702C26.6744 22.4321 26.4145 21.7811 26.4145 21.0174C26.4145 20.2536 26.6744 19.6114 27.1942 19.0906C27.6972 18.5525 28.3177 18.2834 29.0555 18.2834C29.7933 18.2834 30.4221 18.5525 30.9419 19.0906Z" fill="#4760F0"/>
<path d="M85.9019 19.0906C86.4217 19.6114 86.6816 20.2536 86.6816 21.0174C86.6816 21.7811 86.4217 22.4321 85.9019 22.9702C85.382 23.4909 84.7532 23.7513 84.0154 23.7513C83.2776 23.7513 82.6572 23.4909 82.1542 22.9702C81.6343 22.4321 81.3744 21.7811 81.3744 21.0174C81.3744 20.2536 81.6343 19.6114 82.1542 19.0906C82.6572 18.5525 83.2776 18.2834 84.0154 18.2834C84.7532 18.2834 85.382 18.5525 85.9019 19.0906Z" fill="#4760F0"/>
<path d="M126.496 19.0906C127.016 19.6114 127.276 20.2536 127.276 21.0174C127.276 21.7811 127.016 22.4321 126.496 22.9702C125.976 23.4909 125.348 23.7513 124.61 23.7513C123.872 23.7513 123.252 23.4909 122.748 22.9702C122.229 22.4321 121.969 21.7811 121.969 21.0174C121.969 20.2536 122.229 19.6114 122.748 19.0906C123.252 18.5525 123.872 18.2834 124.61 18.2834C125.348 18.2834 125.976 18.5525 126.496 19.0906Z" fill="#4760F0"/>
<path d="M193.182 19.0906C193.701 19.6114 193.961 20.2536 193.961 21.0174C193.961 21.7811 193.701 22.4321 193.182 22.9702C192.662 23.4909 192.033 23.7513 191.295 23.7513C190.557 23.7513 189.937 23.4909 189.434 22.9702C188.914 22.4321 188.654 21.7811 188.654 21.0174C188.654 20.2536 188.914 19.6114 189.434 19.0906C189.937 18.5525 190.557 18.2834 191.295 18.2834C192.033 18.2834 192.662 18.5525 193.182 19.0906Z" fill="#4760F0"/>
<path d="M140.676 19.0906C141.196 19.6114 141.456 20.2536 141.456 21.0174C141.456 21.7811 141.196 22.4321 140.676 22.9702C140.156 23.4909 139.528 23.7513 138.79 23.7513C138.052 23.7513 137.432 23.4909 136.929 22.9702C136.409 22.4321 136.149 21.7811 136.149 21.0174C136.149 20.2536 136.409 19.6114 136.929 19.0906C137.432 18.5525 138.052 18.2834 138.79 18.2834C139.528 18.2834 140.156 18.5525 140.676 19.0906Z" fill="#4760F0"/>
<path d="M119.318 19.0906C119.838 19.6114 120.098 20.2536 120.098 21.0174C120.098 21.7811 119.838 22.4321 119.318 22.9702C118.798 23.4909 118.169 23.7513 117.431 23.7513C116.694 23.7513 116.073 23.4909 115.57 22.9702C115.05 22.4321 114.79 21.7811 114.79 21.0174C114.79 20.2536 115.05 19.6114 115.57 19.0906C116.073 18.5525 116.694 18.2834 117.431 18.2834C118.169 18.2834 118.798 18.5525 119.318 19.0906Z" fill="#4760F0"/>
<path d="M186.003 19.0906C186.523 19.6114 186.783 20.2536 186.783 21.0174C186.783 21.7811 186.523 22.4321 186.003 22.9702C185.483 23.4909 184.855 23.7513 184.117 23.7513C183.379 23.7513 182.759 23.4909 182.256 22.9702C181.736 22.4321 181.476 21.7811 181.476 21.0174C181.476 20.2536 181.736 19.6114 182.256 19.0906C182.759 18.5525 183.379 18.2834 184.117 18.2834C184.855 18.2834 185.483 18.5525 186.003 19.0906Z" fill="#4760F0"/>
<path d="M30.9419 26.4714C31.4617 26.9922 31.7216 27.6344 31.7216 28.3982C31.7216 29.162 31.4617 29.8129 30.9419 30.351C30.4221 30.8718 29.7933 31.1321 29.0555 31.1321C28.3177 31.1321 27.6972 30.8718 27.1942 30.351C26.6744 29.8129 26.4145 29.162 26.4145 28.3982C26.4145 27.6344 26.6744 26.9922 27.1942 26.4714C27.6972 25.9333 28.3177 25.6643 29.0555 25.6643C29.7933 25.6643 30.4221 25.9333 30.9419 26.4714Z" fill="#4760F0"/>
<path d="M85.9019 26.4714C86.4217 26.9922 86.6816 27.6344 86.6816 28.3982C86.6816 29.162 86.4217 29.8129 85.9019 30.351C85.382 30.8718 84.7532 31.1321 84.0154 31.1321C83.2776 31.1321 82.6572 30.8718 82.1542 30.351C81.6343 29.8129 81.3744 29.162 81.3744 28.3982C81.3744 27.6344 81.6343 26.9922 82.1542 26.4714C82.6572 25.9333 83.2776 25.6643 84.0154 25.6643C84.7532 25.6643 85.382 25.9333 85.9019 26.4714Z" fill="#4760F0"/>
<path d="M126.496 26.4714C127.016 26.9922 127.276 27.6344 127.276 28.3982C127.276 29.162 127.016 29.8129 126.496 30.351C125.976 30.8718 125.348 31.1321 124.61 31.1321C123.872 31.1321 123.252 30.8718 122.748 30.351C122.229 29.8129 121.969 29.162 121.969 28.3982C121.969 27.6344 122.229 26.9922 122.748 26.4714C123.252 25.9333 123.872 25.6643 124.61 25.6643C125.348 25.6643 125.976 25.9333 126.496 26.4714Z" fill="#4760F0"/>
<path d="M140.676 26.4714C141.196 26.9922 141.456 27.6344 141.456 28.3982C141.456 29.162 141.196 29.8129 140.676 30.351C140.156 30.8718 139.528 31.1321 138.79 31.1321C138.052 31.1321 137.432 30.8718 136.929 30.351C136.409 29.8129 136.149 29.162 136.149 28.3982C136.149 27.6344 136.409 26.9922 136.929 26.4714C137.432 25.9333 138.052 25.6643 138.79 25.6643C139.528 25.6643 140.156 25.9333 140.676 26.4714Z" fill="#4760F0"/>
<path d="M3.5968 9.12432H8.12424C5.44131 12.6828 4.09985 16.6405 4.09985 20.9974C4.09985 25.3543 5.44131 29.312 8.12424 32.8705H3.5968C1.19893 29.6766 -1.44977e-07 25.7189 0 20.9974C1.44977e-07 16.2759 1.19893 12.3182 3.5968 9.12432Z" fill="#4760F0"/>
<path d="M58.557 9.12432H63.0844C60.4015 12.6828 59.06 16.6405 59.06 20.9974C59.06 25.3543 60.4015 29.312 63.0844 32.8705H58.557C56.1591 29.6766 54.9602 25.7189 54.9602 20.9974C54.9602 16.2759 56.1591 12.3182 58.557 9.12432Z" fill="#4760F0"/>
<path d="M99.1515 9.12432H103.679C100.996 12.6828 99.6546 16.6405 99.6546 20.9974C99.6546 25.3543 100.996 29.312 103.679 32.8705H99.1515C96.7537 29.6766 95.5547 25.7189 95.5547 20.9974C95.5547 16.2759 96.7537 12.3182 99.1515 9.12432Z" fill="#4760F0"/>
<path d="M169.022 32.8699H164.495C167.178 29.3115 168.519 25.3538 168.519 20.9968C168.519 16.6399 167.178 12.6822 164.495 9.12372H169.022C171.42 12.3177 172.619 16.2754 172.619 20.9968C172.619 25.7183 171.42 29.676 169.022 32.8699Z" fill="#4760F0"/>
<path d="M31.7603 3.72336V8.41011C28.3228 5.63277 24.4996 4.24411 20.2908 4.24411C16.0819 4.24411 12.2588 5.63277 8.82127 8.4101V3.72336C11.9066 1.24112 15.7298 -3.5646e-07 20.2908 0C24.8518 3.56461e-07 28.6749 1.24112 31.7603 3.72336Z" fill="#4760F0"/>
<path d="M86.7207 3.72336V8.41011C83.2832 5.63277 79.46 4.24411 75.2512 4.24411C71.0424 4.24411 67.2192 5.63277 63.7817 8.4101V3.72336C66.8671 1.24112 70.6902 -3.5646e-07 75.2512 0C79.8122 3.56461e-07 83.6354 1.24112 86.7207 3.72336Z" fill="#4760F0"/>
<path d="M127.314 3.72336V8.41011C123.877 5.63277 120.054 4.24411 115.845 4.24411C111.636 4.24411 107.813 5.63277 104.375 8.4101V3.72336C107.461 1.24112 111.284 -3.5646e-07 115.845 0C120.406 3.56461e-07 124.229 1.24112 127.314 3.72336Z" fill="#4760F0"/>
<path d="M194 3.72432V8.41107C190.562 5.63374 186.739 4.24507 182.53 4.24507C178.322 4.24507 174.498 5.63374 171.061 8.41107V3.72432C174.146 1.24208 177.969 0.000961952 182.53 0.000962308C187.091 0.000962665 190.915 1.24208 194 3.72432Z" fill="#4760F0"/>
<path d="M8.82138 38.2762L8.82138 33.5894C12.2589 36.3667 16.082 37.7554 20.2909 37.7554C24.4997 37.7554 28.3229 36.3667 31.7604 33.5894L31.7604 38.2762C28.675 40.7584 24.8519 41.9995 20.2909 41.9995C15.7299 41.9995 11.9067 40.7584 8.82138 38.2762Z" fill="#4760F0"/>
<path d="M63.7816 38.2762V33.5894C67.2191 36.3667 71.0422 37.7554 75.2511 37.7554C79.4599 37.7554 83.2831 36.3667 86.7206 33.5894V38.2762C83.6352 40.7584 79.8121 41.9995 75.2511 41.9995C70.6901 41.9995 66.8669 40.7584 63.7816 38.2762Z" fill="#4760F0"/>
<path d="M104.376 38.2762V33.5894C107.813 36.3667 111.636 37.7554 115.845 37.7554C120.054 37.7554 123.877 36.3667 127.315 33.5894V38.2762C124.229 40.7584 120.406 41.9995 115.845 41.9995C111.284 41.9995 107.461 40.7584 104.376 38.2762Z" fill="#4760F0"/>
<path d="M171.061 38.2766V33.5899C174.498 36.3672 178.322 37.7559 182.53 37.7559C186.739 37.7559 190.562 36.3672 194 33.5899V38.2766C190.915 40.7589 187.091 42 182.53 42C177.97 42 174.146 40.7589 171.061 38.2766Z" fill="#4760F0"/>
<path d="M136.149 38.2762V33.5894C139.586 36.3667 143.41 37.7554 147.618 37.7554C151.827 37.7554 155.65 36.3667 159.088 33.5894V38.2762C156.003 40.7584 152.179 41.9995 147.618 41.9995C143.057 41.9995 139.234 40.7584 136.149 38.2762Z" fill="#4760F0"/>
</svg>
